<mxfile host="app.diagrams.net" modified="2022-05-16T20:24:15.374Z" agent="5.0 (Windows NT 10.0; Win64; x64) AppleWebKit/537.36 (KHTML, like Gecko) Chrome/101.0.4951.67 Safari/537.36" etag="Dr3UJ4g3_kblKtmhTZIz" version="18.0.6" type="github">
  <diagram id="UEM3OIptNVHzIdFB4tCx" name="Page-1">
    <mxGraphModel dx="1550" dy="803" grid="1" gridSize="10" guides="1" tooltips="1" connect="1" arrows="1" fold="1" page="1" pageScale="1" pageWidth="827" pageHeight="1169" math="0" shadow="0">
      <root>
        <mxCell id="0" />
        <mxCell id="1" parent="0" />
        <mxCell id="lddy9hHCiO8Ml6ia-3mG-3" value="&lt;div style=&quot;font-size: 17px;&quot;&gt;&lt;font data-font-src=&quot;https://fonts.google.com/specimen/Space+Mono&quot; style=&quot;font-size: 17px;&quot;&gt;# A sample entry&amp;nbsp;&lt;/font&gt;&lt;/div&gt;&lt;div style=&quot;font-size: 17px;&quot;&gt;&lt;font data-font-src=&quot;https://fonts.google.com/specimen/Space+Mono&quot; style=&quot;font-size: 17px;&quot;&gt;# Format: &amp;lt;Attribute&amp;gt;: &amp;lt;Value&amp;gt;&lt;/font&gt;&lt;/div&gt;&lt;div style=&quot;font-size: 17px;&quot;&gt;&lt;font data-font-src=&quot;https://fonts.google.com/specimen/Space+Mono&quot; style=&quot;font-size: 17px;&quot;&gt;dn: cn=vinc,ou=people,dc=na,dc=nckucs,dc=cc&lt;/font&gt;&lt;/div&gt;&lt;div style=&quot;font-size: 17px;&quot;&gt;&lt;font data-font-src=&quot;https://fonts.google.com/specimen/Space+Mono&quot; style=&quot;font-size: 17px;&quot;&gt;objectClass: person&lt;/font&gt;&lt;/div&gt;&lt;div style=&quot;font-size: 17px;&quot;&gt;&lt;font data-font-src=&quot;https://fonts.google.com/specimen/Space+Mono&quot; style=&quot;font-size: 17px;&quot;&gt;cn: vinc&lt;/font&gt;&lt;/div&gt;&lt;div style=&quot;font-size: 17px;&quot;&gt;&lt;font data-font-src=&quot;https://fonts.google.com/specimen/Space+Mono&quot; style=&quot;font-size: 17px;&quot;&gt;telephoneNumber: 123-4567&lt;/font&gt;&lt;/div&gt;" style="rounded=0;whiteSpace=wrap;html=1;align=left;fillColor=#E6E6E6;" vertex="1" parent="1">
          <mxGeometry x="380" y="160" width="400" height="140" as="geometry" />
        </mxCell>
        <mxCell id="lddy9hHCiO8Ml6ia-3mG-5" style="edgeStyle=orthogonalEdgeStyle;rounded=0;orthogonalLoop=1;jettySize=auto;html=1;exitX=0.5;exitY=1;exitDx=0;exitDy=0;entryX=0.5;entryY=0;entryDx=0;entryDy=0;fontSize=29;" edge="1" parent="1" source="lddy9hHCiO8Ml6ia-3mG-6" target="lddy9hHCiO8Ml6ia-3mG-8">
          <mxGeometry relative="1" as="geometry" />
        </mxCell>
        <mxCell id="lddy9hHCiO8Ml6ia-3mG-6" value="&lt;p style=&quot;line-height: normal; margin: 0pt 0in; text-indent: 0in; direction: ltr; unicode-bidi: embed; vertical-align: baseline; word-break: normal;&quot;&gt;&lt;span style=&quot;font-size: 22pt; font-family: Arial; font-variant-numeric: normal; font-variant-east-asian: normal; color: rgb(23, 55, 94); font-weight: bold;&quot;&gt;dc=cc&lt;/span&gt;&lt;/p&gt;" style="rounded=1;whiteSpace=wrap;html=1;" vertex="1" parent="1">
          <mxGeometry x="120" y="40" width="120" height="40" as="geometry" />
        </mxCell>
        <mxCell id="lddy9hHCiO8Ml6ia-3mG-7" style="edgeStyle=orthogonalEdgeStyle;rounded=0;orthogonalLoop=1;jettySize=auto;html=1;exitX=0.5;exitY=1;exitDx=0;exitDy=0;entryX=0.5;entryY=0;entryDx=0;entryDy=0;fontSize=29;" edge="1" parent="1" source="lddy9hHCiO8Ml6ia-3mG-8" target="lddy9hHCiO8Ml6ia-3mG-11">
          <mxGeometry relative="1" as="geometry" />
        </mxCell>
        <mxCell id="lddy9hHCiO8Ml6ia-3mG-8" value="&lt;p style=&quot;line-height: normal; margin: 0pt 0in; text-indent: 0in; direction: ltr; unicode-bidi: embed; vertical-align: baseline; word-break: normal;&quot;&gt;&lt;span style=&quot;font-size: 22pt; font-family: Arial; font-variant-numeric: normal; font-variant-east-asian: normal; color: rgb(23, 55, 94); font-weight: bold;&quot;&gt;d&lt;/span&gt;&lt;span style=&quot;font-size: 22pt; font-family: Arial; font-variant-numeric: normal; font-variant-east-asian: normal; color: rgb(23, 55, 94); font-weight: bold; vertical-align: baseline;&quot;&gt;c=&lt;/span&gt;&lt;span style=&quot;font-size: 22pt; font-family: Arial; font-variant-numeric: normal; font-variant-east-asian: normal; color: rgb(23, 55, 94); font-weight: bold; vertical-align: baseline;&quot;&gt;nckucs&lt;/span&gt;&lt;/p&gt;" style="rounded=1;whiteSpace=wrap;html=1;" vertex="1" parent="1">
          <mxGeometry x="100" y="100" width="160" height="40" as="geometry" />
        </mxCell>
        <mxCell id="lddy9hHCiO8Ml6ia-3mG-9" style="edgeStyle=orthogonalEdgeStyle;rounded=0;orthogonalLoop=1;jettySize=auto;html=1;exitX=0.25;exitY=1;exitDx=0;exitDy=0;entryX=0.5;entryY=0;entryDx=0;entryDy=0;fontSize=29;" edge="1" parent="1" source="lddy9hHCiO8Ml6ia-3mG-11" target="lddy9hHCiO8Ml6ia-3mG-12">
          <mxGeometry relative="1" as="geometry" />
        </mxCell>
        <mxCell id="lddy9hHCiO8Ml6ia-3mG-10" style="edgeStyle=orthogonalEdgeStyle;rounded=0;orthogonalLoop=1;jettySize=auto;html=1;exitX=0.75;exitY=1;exitDx=0;exitDy=0;entryX=0.5;entryY=0;entryDx=0;entryDy=0;fontSize=29;" edge="1" parent="1" source="lddy9hHCiO8Ml6ia-3mG-11" target="lddy9hHCiO8Ml6ia-3mG-14">
          <mxGeometry relative="1" as="geometry" />
        </mxCell>
        <mxCell id="lddy9hHCiO8Ml6ia-3mG-11" value="&lt;p style=&quot;line-height: normal; margin: 0pt 0in; text-indent: 0in; direction: ltr; unicode-bidi: embed; vertical-align: baseline; word-break: normal;&quot;&gt;&lt;span style=&quot;font-size: 22pt; font-family: Arial; font-variant-numeric: normal; font-variant-east-asian: normal; color: rgb(23, 55, 94); font-weight: bold;&quot;&gt;dc=&lt;/span&gt;&lt;span style=&quot;font-size: 22pt; font-family: Arial; font-variant-numeric: normal; font-variant-east-asian: normal; color: rgb(23, 55, 94); font-weight: bold;&quot;&gt;na&lt;/span&gt;&lt;/p&gt;" style="rounded=1;whiteSpace=wrap;html=1;" vertex="1" parent="1">
          <mxGeometry x="120" y="160" width="120" height="40" as="geometry" />
        </mxCell>
        <mxCell id="lddy9hHCiO8Ml6ia-3mG-12" value="&lt;p style=&quot;line-height: normal; margin: 0pt 0in; text-indent: 0in; direction: ltr; unicode-bidi: embed; vertical-align: baseline; word-break: normal;&quot;&gt;&lt;span style=&quot;font-size: 22pt; font-family: Arial; font-variant-numeric: normal; font-variant-east-asian: normal; color: rgb(23, 55, 94); font-weight: bold;&quot;&gt;o&lt;/span&gt;&lt;span style=&quot;font-size: 22pt; font-family: Arial; font-variant-numeric: normal; font-variant-east-asian: normal; color: rgb(23, 55, 94); font-weight: bold; vertical-align: baseline;&quot;&gt;u&lt;/span&gt;&lt;span style=&quot;font-size: 22pt; font-family: Arial; font-variant-numeric: normal; font-variant-east-asian: normal; color: rgb(23, 55, 94); font-weight: bold; vertical-align: baseline;&quot;&gt;=&lt;/span&gt;&lt;span style=&quot;font-size: 22pt; font-family: Arial; font-variant-numeric: normal; font-variant-east-asian: normal; color: rgb(23, 55, 94); font-weight: bold;&quot;&gt;Group&lt;/span&gt;&lt;/p&gt;" style="rounded=1;whiteSpace=wrap;html=1;" vertex="1" parent="1">
          <mxGeometry x="10" y="240" width="160" height="40" as="geometry" />
        </mxCell>
        <mxCell id="lddy9hHCiO8Ml6ia-3mG-13" style="edgeStyle=orthogonalEdgeStyle;rounded=0;orthogonalLoop=1;jettySize=auto;html=1;exitX=0.25;exitY=1;exitDx=0;exitDy=0;fontSize=29;" edge="1" parent="1" source="lddy9hHCiO8Ml6ia-3mG-14" target="lddy9hHCiO8Ml6ia-3mG-15">
          <mxGeometry relative="1" as="geometry" />
        </mxCell>
        <mxCell id="lddy9hHCiO8Ml6ia-3mG-14" value="&lt;p style=&quot;line-height: normal; margin: 0pt 0in; text-indent: 0in; direction: ltr; unicode-bidi: embed; vertical-align: baseline; word-break: normal;&quot;&gt;&lt;span style=&quot;font-size: 22pt; font-family: Arial; font-variant-numeric: normal; font-variant-east-asian: normal; color: rgb(23, 55, 94); font-weight: bold;&quot;&gt;o&lt;/span&gt;&lt;span style=&quot;font-size: 22pt; font-family: Arial; font-variant-numeric: normal; font-variant-east-asian: normal; color: rgb(23, 55, 94); font-weight: bold; vertical-align: baseline;&quot;&gt;u&lt;/span&gt;&lt;span style=&quot;font-size: 22pt; font-family: Arial; font-variant-numeric: normal; font-variant-east-asian: normal; color: rgb(23, 55, 94); font-weight: bold; vertical-align: baseline;&quot;&gt;=&lt;/span&gt;&lt;span style=&quot;font-size: 22pt; font-family: Arial; font-variant-numeric: normal; font-variant-east-asian: normal; color: rgb(23, 55, 94); font-weight: bold;&quot;&gt;People&lt;/span&gt;&lt;/p&gt;" style="rounded=1;whiteSpace=wrap;html=1;" vertex="1" parent="1">
          <mxGeometry x="190" y="240" width="160" height="40" as="geometry" />
        </mxCell>
        <mxCell id="lddy9hHCiO8Ml6ia-3mG-15" value="&lt;p style=&quot;line-height: normal; margin: 0pt 0in; text-indent: 0in; direction: ltr; unicode-bidi: embed; vertical-align: baseline; word-break: normal;&quot;&gt;&lt;span style=&quot;font-size: 22pt; font-family: Arial; font-variant-numeric: normal; font-variant-east-asian: normal; color: rgb(23, 55, 94); font-weight: bold;&quot;&gt;cn&lt;/span&gt;&lt;span style=&quot;font-size: 22pt; font-family: Arial; font-variant-numeric: normal; font-variant-east-asian: normal; color: rgb(23, 55, 94); font-weight: bold; vertical-align: baseline;&quot;&gt;=&lt;/span&gt;&lt;span style=&quot;font-size: 22pt; font-family: Arial; font-variant-numeric: normal; font-variant-east-asian: normal; color: rgb(23, 55, 94); font-weight: bold; vertical-align: baseline;&quot;&gt;vinc&lt;/span&gt;&lt;/p&gt;" style="rounded=1;whiteSpace=wrap;html=1;" vertex="1" parent="1">
          <mxGeometry x="165" y="320" width="130" height="40" as="geometry" />
        </mxCell>
        <mxCell id="lddy9hHCiO8Ml6ia-3mG-16" value="" style="curved=1;endArrow=classic;html=1;rounded=0;fontFamily=homo;fontSource=https%3A%2F%2Ffonts.google.com%2Fspecimen%2FSpace%2BMono;fontSize=17;" edge="1" parent="1">
          <mxGeometry width="50" height="50" relative="1" as="geometry">
            <mxPoint x="320" y="340" as="sourcePoint" />
            <mxPoint x="370" y="290" as="targetPoint" />
            <Array as="points">
              <mxPoint x="370" y="340" />
              <mxPoint x="320" y="290" />
            </Array>
          </mxGeometry>
        </mxCell>
      </root>
    </mxGraphModel>
  </diagram>
</mxfile>
